<svg xmlns:dc="http://purl.org/dc/elements/1.1/" xmlns:cc="http://creativecommons.org/ns#" xmlns:rdf="http://www.w3.org/1999/02/22-rdf-syntax-ns#" xmlns:svg="http://www.w3.org/2000/svg" xmlns="http://www.w3.org/2000/svg" xmlns:xlink="http://www.w3.org/1999/xlink" id="svg635634" version="1.1" viewBox="150.07 232.15 723.82 303.73">  <metadata id="metadata635640">    <rdf:rdf>      <cc:work rdf:about="">        <dc:format>image/svg+xml</dc:format>        <dc:type rdf:resource="http://purl.org/dc/dcmitype/StillImage"></dc:type>      </cc:work>    </rdf:rdf>  </metadata>  <defs id="defs635638"></defs>  <linearGradient spreadMethod="pad" y2="30%" x2="-10%" y1="120%" x1="30%" id="3d_gradient2-logo-7e8e6909-940a-41ac-b2f9-39b1dc148c47">    <stop id="stop635615" stop-opacity="1" stop-color="#ffffff" offset="0%" style="--darkreader-inline-stopcolor: #181a1b;" data-darkreader-inline-stopcolor=""></stop>    <stop id="stop635617" stop-opacity="1" stop-color="#000000" offset="100%" style="--darkreader-inline-stopcolor: #000000;" data-darkreader-inline-stopcolor=""></stop>  </linearGradient>  <linearGradient gradientTransform="rotate(-30)" spreadMethod="pad" y2="30%" x2="-10%" y1="120%" x1="30%" id="3d_gradient3-logo-7e8e6909-940a-41ac-b2f9-39b1dc148c47">    <stop id="stop635620" stop-opacity="1" stop-color="#ffffff" offset="0%" style="--darkreader-inline-stopcolor: #181a1b;" data-darkreader-inline-stopcolor=""></stop>    <stop id="stop635622" stop-opacity="1" stop-color="#cccccc" offset="50%" style="--darkreader-inline-stopcolor: #35393b;" data-darkreader-inline-stopcolor=""></stop>    <stop id="stop635624" stop-opacity="1" stop-color="#000000" offset="100%" style="--darkreader-inline-stopcolor: #000000;" data-darkreader-inline-stopcolor=""></stop>  </linearGradient>  <g id="logo-group">    <image xlink:href="" id="container" style="display: none;" x="272" y="144" width="480" height="480" transform="translate(0 0)"></image>    <g id="logo-center" transform="translate(100.12734374999985 0)">      <image xlink:href="" id="icon_container" style="display: none;" x="0" y="0"></image>      <g id="slogan" style="font-style:normal;font-weight:normal;font-size:32px;line-height:1;font-family:'Brandmark Sans 30 Color';font-variant-ligatures:none;text-align:center;text-anchor:middle" transform="translate(0 0)"></g>      <g id="title" style="font-style:normal;font-weight:normal;font-size:72px;line-height:1;font-family:'Brandmark Sans 30 Color';font-variant-ligatures:normal;text-align:center;text-anchor:middle" transform="translate(0 0)">        <g id="path635643" aria-label="^R" transform="translate(0 270.49) translate(50 -38.32000000000001) scale(2.916666666666667) translate(-276.41994 46.08)"> <path class="c3" d="M92.51369,101.72592v-5.40039h11.8811c5.40039,0,7.4165-2.08813,7.4165-7.34473 c0-5.40039-2.16016-7.34448-7.4165-7.34448H88.04933v40.68347h-5.40039V76.23581h21.74585 c7.77661,0,12.81714,4.6084,12.81714,12.745c0,7.77673-4.75244,12.74512-12.81714,12.74512h-4.75244l17.71338,20.59387h-7.0564 l-17.71362-20.59387C92.58571,101.72593,92.51369,101.72593,92.51369,101.72592z" transform="translate(193.771 -122.31581)" stroke-width="0" stroke-linejoin="miter" stroke-miterlimit="2" fill="#000000" stroke="#000000" style="--darkreader-inline-fill: #000000; --darkreader-inline-stroke: #e8e6e3;" data-darkreader-inline-fill="" data-darkreader-inline-stroke=""></path> </g>        <g id="path635645" aria-label="^e" transform="translate(0 270.49) translate(154.1796875 -14.170000000000002) scale(2.916666666666667) translate(-312.13869 37.8)"> <path class="c3" d="M83.15236,103.52614c0-12.45703,6.48059-19.00952,16.84949-19.00952s16.84949,6.55249,16.84949,19.00952 v1.44019H88.69679c0.28809,9.07275,3.38428,12.16907,9.36084,12.16907h4.53638c3.74438,0,6.55261-2.37622,8.28076-7.05664h5.40039 c-2.01611,7.99268-7.92065,12.60107-16.27332,12.60107C89.20094,122.67982,83.15236,115.47926,83.15236,103.52614z M111.16286,99.9258c-0.72021-7.4165-3.74438-10.00879-9.2168-10.00879h-3.88843c-5.47241,0-8.4967,2.59229-9.2168,10.00879 H111.16286z" transform="translate(228.98633 -122.31662)" stroke-width="0" stroke-linejoin="miter" stroke-miterlimit="2" fill="#000000" stroke="#000000" style="--darkreader-inline-fill: #000000; --darkreader-inline-stroke: #e8e6e3;" data-darkreader-inline-fill="" data-darkreader-inline-stroke=""></path> </g>        <g id="path635647" aria-label="^c" transform="translate(0 270.49) translate(261.64062499999994 -14.170000000000002) scale(2.916666666666667) translate(-348.98244 37.8)"> <path class="c3" d="M83.4402,103.52614c0-12.45703,6.48059-19.00952,16.84949-19.00952 c7.92065,0,13.89722,3.88818,16.05737,11.88098h-5.40045c-1.65619-4.24841-4.17633-6.48059-7.92072-6.48059h-4.82434 c-6.26459,0-9.36084,3.4563-9.36084,13.60913c0,10.15295,3.09625,13.60925,9.36084,13.60925h4.68036 c3.74432,0,6.55255-2.37622,8.2807-7.05664h5.40051c-2.01624,7.99268-7.92072,12.60107-16.27344,12.60107 C89.48878,122.67982,83.4402,115.47926,83.4402,103.52614z" transform="translate(265.54224 -122.31662)" stroke-width="0" stroke-linejoin="miter" stroke-miterlimit="2" fill="#000000" stroke="#000000" style="--darkreader-inline-fill: #000000; --darkreader-inline-stroke: #e8e6e3;" data-darkreader-inline-fill="" data-darkreader-inline-stroke=""></path> </g>        <g id="path635649" aria-label="^l" transform="translate(0 270.49) translate(367.46093749999994 -38.32000000000001) scale(2.916666666666667) translate(-385.26369 46.08)"> <path class="c3" d="M102.70119,76.23586v46.08398H97.3008V76.23586H102.70119z" transform="translate(287.96289 -122.31586)" stroke-width="0" stroke-linejoin="miter" stroke-miterlimit="2" fill="#000000" stroke="#000000" style="--darkreader-inline-fill: #000000; --darkreader-inline-stroke: #e8e6e3;" data-darkreader-inline-fill="" data-darkreader-inline-stroke=""></path> </g>        <g id="path635651" aria-label="^a" transform="translate(0 270.49) translate(392.48045416666673 -14.170000000000002) scale(2.916666666666667) translate(-393.84181 37.8)"> <path class="c3" d="M82.86455,103.45412c0-11.88098,7.1286-18.9375,17.64154-18.9375c4.75238,0,8.4967,1.72803,11.23297,4.6084 V84.8766h5.40045v37.44324h-5.40045v-4.24841c-2.73627,2.95227-6.48059,4.68042-11.23297,4.68042 C89.99315,122.75185,82.86455,115.62331,82.86455,103.45412z M98.05785,116.99135h4.68042 c5.83252,0,9.00079-4.10437,9.00079-10.58484v-5.90454c0-6.48059-3.16827-10.58496-9.00079-10.58496h-4.68042 c-5.83249,0-9.79285,5.04041-9.79285,13.53711C88.265,111.95094,92.22536,116.99135,98.05785,116.99135z" transform="translate(310.97726 -122.31662)" stroke-width="0" stroke-linejoin="miter" stroke-miterlimit="2" fill="#000000" stroke="#000000" style="--darkreader-inline-fill: #000000; --darkreader-inline-stroke: #e8e6e3;" data-darkreader-inline-fill="" data-darkreader-inline-stroke=""></path> </g>        <g id="path635653" aria-label="^i" transform="translate(0 270.49) translate(501.5820166666668 -38.32000000000001) scale(2.916666666666667) translate(-431.24806 46.08)"> <rect x="97.30055" y="76.23586" class="c1" width="5.40063" height="5.40039" transform="translate(333.947508 -122.315863)" stroke-width="0" stroke-linejoin="miter" stroke-miterlimit="2" fill="#4682b6" stroke="#4682b6" style="--darkreader-inline-fill: #6da0c7; --darkreader-inline-stroke: #6da0c7;" data-darkreader-inline-fill="" data-darkreader-inline-stroke=""></rect> <rect x="97.30055" y="84.8766" class="c3" width="5.40063" height="37.44324" transform="translate(333.947508 -122.315863)" stroke-width="0" stroke-linejoin="miter" stroke-miterlimit="2" fill="#000000" stroke="#000000" style="--darkreader-inline-fill: #000000; --darkreader-inline-stroke: #e8e6e3;" data-darkreader-inline-fill="" data-darkreader-inline-stroke=""></rect> </g>        <g id="path635655" aria-label="^m" transform="translate(0 270.49) translate(526.6015625000002 -14.170000000000002) scale(2.916666666666667) translate(-439.82619 37.8)"> <path class="c3" d="M80.74123,84.8766v2.3761c1.87207-1.87207,4.68042-2.73608,8.78467-2.73608 c6.62451,0,10.00879,1.94409,11.66504,5.32837c1.94409-3.67236,5.40039-5.32837,11.01709-5.32837 c11.37695,0,12.45703,5.8324,12.45703,16.92139v20.88184h-5.40063V99.78188c0-6.69666-1.65601-9.86487-6.19238-9.86487h-3.31226 c-4.53662,0-7.05664,3.16821-7.05664,8.28076v1.08008v23.04199h-5.40039V99.78188c0-6.69666-1.65625-9.86487-6.19263-9.86487 h-3.31226c-4.53638,0-7.05664,3.16821-7.05664,8.28076v24.12207h-5.40039V84.8766H80.74123z" transform="translate(364.48535 -122.31662)" stroke-width="0" stroke-linejoin="miter" stroke-miterlimit="2" fill="#000000" stroke="#000000" style="--darkreader-inline-fill: #000000; --darkreader-inline-stroke: #e8e6e3;" data-darkreader-inline-fill="" data-darkreader-inline-stroke=""></path> </g>        <g id="path635657" aria-label="P" transform="translate(0 270.49) translate(50 129.89) scale(2.916666666666667) translate(-499.45119 46.008)"> <path class="c1" d="M82.50441,76.30783h19.9458c8.92871,0,15.04907,5.47247,15.04907,14.97729 c0,9.00079-5.68848,15.04932-15.04907,15.04932H91.86525v15.98538h-9.36084V96.97363h19.9458 c4.68018,0,5.68848-1.08011,5.68848-5.68851c0-4.68039-1.0083-5.61646-5.68848-5.61646h-19.9458V76.30783z" transform="translate(416.94678 -122.31583)" stroke-width="0" stroke-linejoin="miter" stroke-miterlimit="2" fill="#4682b6" stroke="#4682b6" style="--darkreader-inline-fill: #386892; --darkreader-inline-stroke: #6da0c7;" data-darkreader-inline-fill="" data-darkreader-inline-stroke=""></path> </g>        <g id="path635659" aria-label="r" transform="translate(0 270.49) translate(161.15232916666682 153.82999999999998) scale(2.916666666666667) translate(-537.56056 37.8)"> <path class="c1" d="M99.92921,84.87655v2.80829c2.08813-2.16022,5.1123-3.16827,9.50464-3.16827v9.2168h-3.88818 c-4.53638,0-5.61646,3.16827-5.61646,8.2807v20.30573h-9.36084V84.87655H99.92921z" transform="translate(446.99219 -122.31657)" stroke-width="0" stroke-linejoin="miter" stroke-miterlimit="2" fill="#4682b6" stroke="#4682b6" style="--darkreader-inline-fill: #386892; --darkreader-inline-stroke: #6da0c7;" data-darkreader-inline-fill="" data-darkreader-inline-stroke=""></path> </g>        <g id="path635661" aria-label="o" transform="translate(0 270.49) translate(214.88281250000003 153.82999999999998) scale(2.916666666666667) translate(-555.98244 37.8)"> <path class="c1" d="M80.92067,103.45419c0-12.16907,7.27271-18.93762,19.08179-18.93762 c12.31299,0,19.08154,7.20062,19.08154,18.93762c0,12.38507-7.27271,19.29767-19.08154,19.29767 C87.68922,122.75185,80.92067,115.47921,80.92067,103.45419z M97.84206,113.46304h4.32056 c4.89624,0,8.28052-3.74432,8.28052-10.00885s-3.38428-10.00885-8.28052-10.00885h-4.32056 c-4.89624,0-8.28052,3.74432-8.28052,10.00885S92.94582,113.46304,97.84206,113.46304z" transform="translate(475.06177 -122.31657)" stroke-width="0" stroke-linejoin="miter" stroke-miterlimit="2" fill="#4682b6" stroke="#4682b6" style="--darkreader-inline-fill: #386892; --darkreader-inline-stroke: #6da0c7;" data-darkreader-inline-fill="" data-darkreader-inline-stroke=""></path> </g>        <g id="path635663" aria-label="t" transform="translate(0 270.49) translate(335.4687500000001 129.68) scale(2.916666666666667) translate(-597.32619 46.08)"> <path class="c1" d="M107.92189,122.31979h-4.32031c-6.98438,0-11.521-4.53638-11.521-11.521v-34.563h9.36084v8.64075h6.48047 v9.36084h-6.48047v16.5614c0,2.16022,0,2.16022,2.16016,2.16022h4.32031V122.31979z" transform="translate(505.24561 -122.31579)" stroke-width="0" stroke-linejoin="miter" stroke-miterlimit="2" fill="#4682b6" stroke="#4682b6" style="--darkreader-inline-fill: #386892; --darkreader-inline-stroke: #6da0c7;" data-darkreader-inline-fill="" data-darkreader-inline-stroke=""></path> </g>        <g id="path635665" aria-label="o" transform="translate(0 270.49) translate(386.73826666666673 153.82999999999998) scale(2.916666666666667) translate(-614.90431 37.8)"> <path class="c1" d="M80.92067,103.45419c0-12.16907,7.27271-18.93762,19.08179-18.93762 c12.31299,0,19.08154,7.20062,19.08154,18.93762c0,12.38507-7.27271,19.29767-19.08154,19.29767 C87.68922,122.75185,80.92067,115.47921,80.92067,103.45419z M97.84206,113.46304h4.32056 c4.89624,0,8.28052-3.74432,8.28052-10.00885s-3.38428-10.00885-8.28052-10.00885h-4.32056 c-4.89624,0-8.28052,3.74432-8.28052,10.00885S92.94582,113.46304,97.84206,113.46304z" transform="translate(533.98364 -122.31657)" stroke-width="0" stroke-linejoin="miter" stroke-miterlimit="2" fill="#4682b6" stroke="#4682b6" style="--darkreader-inline-fill: #386892; --darkreader-inline-stroke: #6da0c7;" data-darkreader-inline-fill="" data-darkreader-inline-stroke=""></path> </g>        <g id="path635667" aria-label="c" transform="translate(0 270.49) translate(507.32420416666685 153.82999999999998) scale(2.916666666666667) translate(-656.24806 37.8)"> <path class="c1" d="M81.28029,103.45419c0-12.60107,6.84058-18.93762,19.08167-18.93762 c10.00891,0,16.77747,4.32037,18.28955,12.38507h-9.57678c-1.44012-2.23224-3.74432-3.4563-6.55261-3.4563H98.2018 c-4.89648,0-8.28076,3.74432-8.28076,10.00885s3.38428,10.00885,8.28076,10.00885h4.32031 c2.95227,0,5.32849-1.3681,6.76868-3.81635h9.43274c-1.51208,9.00079-8.35266,13.10516-18.36157,13.10516 C87.61684,122.75185,81.28029,115.91128,81.28029,103.45419z" transform="translate(574.96777 -122.31657)" stroke-width="0" stroke-linejoin="miter" stroke-miterlimit="2" fill="#4682b6" stroke="#4682b6" style="--darkreader-inline-fill: #386892; --darkreader-inline-stroke: #6da0c7;" data-darkreader-inline-fill="" data-darkreader-inline-stroke=""></path> </g>        <g id="path635669" aria-label="o" transform="translate(0 270.49) translate(625.8593750000003 153.82999999999998) scale(2.916666666666667) translate(-696.88869 37.8)"> <path class="c1" d="M80.92067,103.45419c0-12.16907,7.27271-18.93762,19.08179-18.93762 c12.31299,0,19.08154,7.20062,19.08154,18.93762c0,12.38507-7.27271,19.29767-19.08154,19.29767 C87.68922,122.75185,80.92067,115.47921,80.92067,103.45419z M97.84206,113.46304h4.32056 c4.89624,0,8.28052-3.74432,8.28052-10.00885s-3.38428-10.00885-8.28052-10.00885h-4.32056 c-4.89624,0-8.28052,3.74432-8.28052,10.00885S92.94582,113.46304,97.84206,113.46304z" transform="translate(615.96802 -122.31657)" stroke-width="0" stroke-linejoin="miter" stroke-miterlimit="2" fill="#4682b6" stroke="#4682b6" style="--darkreader-inline-fill: #386892; --darkreader-inline-stroke: #6da0c7;" data-darkreader-inline-fill="" data-darkreader-inline-stroke=""></path> </g>        <g id="path635671" aria-label="l" transform="translate(0 270.49) translate(746.4453125000003 129.68) scale(2.916666666666667) translate(-738.23244 46.08)"> <path class="c1" d="M104.68117,76.2358v46.08398h-9.36084V76.2358H104.68117z" transform="translate(642.91211 -122.3158)" stroke-width="0" stroke-linejoin="miter" stroke-miterlimit="2" fill="#4682b6" stroke="#4682b6" style="--darkreader-inline-fill: #386892; --darkreader-inline-stroke: #6da0c7;" data-darkreader-inline-fill="" data-darkreader-inline-stroke=""></path> </g>                     </g>      <image xlink:href="" id="icon" style="display: none;" x="0" y="0"></image>    </g>  </g></svg>