<svg width="100%" viewBox="0 0 36 41" fill="none" xmlns="http://www.w3.org/2000/svg">
<path d="M9.05021 0.279829C9.08397 0.125284 9.23957 0 9.39775 0H17.1312C17.2894 0 17.3903 0.125284 17.3565 0.279829L15.7064 7.83521C15.6727 7.98975 15.5171 8.11504 15.3589 8.11504H7.62542C7.46723 8.11504 7.36636 7.98975 7.40011 7.83521L9.05021 0.279829Z" fill="#1275F7" style="--darkreader-inline-fill: #2895f8;" data-darkreader-inline-fill=""></path>
<path d="M19.0751 0.279829C19.1088 0.125284 19.2644 0 19.4226 0H32.3117C34.21 0 35.4205 1.5034 35.0155 3.35795L30.493 24.0653C30.4592 24.2198 30.3036 24.3451 30.1454 24.3451H22.817C22.6588 24.3451 22.5032 24.4704 22.4695 24.6249L20.8194 32.1803C20.7856 32.3349 20.8865 32.4601 21.0447 32.4601H28.3731C28.5313 32.4601 28.6322 32.5854 28.5984 32.74L26.9483 40.2954C26.9145 40.4499 26.7589 40.5752 26.6008 40.5752H18.8673C18.7091 40.5752 18.6082 40.4499 18.642 40.2954L20.2921 32.74C20.3258 32.5854 20.225 32.4601 20.0668 32.4601H12.3333C12.1751 32.4601 12.0742 32.3349 12.108 32.1803L13.7581 24.6249C13.7918 24.4704 13.9474 24.3451 14.1056 24.3451H21.8391C21.9973 24.3451 22.1529 24.2198 22.1866 24.0653L25.3035 9.79401C25.506 8.86674 24.9008 8.11504 23.9516 8.11504H17.6503C17.4921 8.11504 17.3912 7.98975 17.425 7.83521L19.0751 0.279829Z" fill="#1275F7" style="--darkreader-inline-fill: #0656c0;" data-darkreader-inline-fill=""></path>
<path d="M7.25873 9.79401C7.10054 9.79401 6.94495 9.91929 6.91119 10.0738L0.310785 40.2954C0.277031 40.4499 0.377907 40.5752 0.536094 40.5752H8.26957C8.42775 40.5752 8.58335 40.4499 8.61711 40.2954L15.2175 10.0738C15.2513 9.91929 15.1504 9.79401 14.9922 9.79401H7.25873Z" fill="#1275F7" style="--darkreader-inline-fill: #2895f8;" data-darkreader-inline-fill=""></path>
</svg>